<svg xmlns="http://www.w3.org/2000/svg" width="160" height="36" fill="none"><rect width="160" height="36" fill="#756157" rx="4"/><path fill="#fff" d="m37.983 18.304-3.12-5.504h2.64l1.728 3.232.384 1.136.368-1.136L41.79 12.8h2.384l-3.232 5.392L44.335 24h-2.608l-1.968-3.456-.432-1.184-.416 1.184L36.927 24h-2.384l3.44-5.696Zm6.914.096c0-1.867.41-3.301 1.232-4.304.821-1.013 1.995-1.52 3.52-1.52.8 0 1.499.139 2.096.416a3.949 3.949 0 0 1 1.488 1.184c.395.512.688 1.125.88 1.84.192.715.288 1.51.288 2.384 0 1.867-.416 3.307-1.248 4.32-.821 1.003-1.99 1.504-3.504 1.504-.81 0-1.515-.139-2.112-.416a3.947 3.947 0 0 1-1.488-1.184c-.384-.512-.672-1.125-.864-1.84-.192-.715-.288-1.51-.288-2.384Zm2.304 0c0 .565.048 1.088.144 1.568.096.47.24.875.432 1.216.203.341.459.608.768.8.31.192.677.288 1.104.288.779 0 1.381-.304 1.808-.912.427-.608.64-1.595.64-2.96 0-.544-.048-1.05-.144-1.52a4.087 4.087 0 0 0-.416-1.232 2.143 2.143 0 0 0-.752-.816c-.31-.203-.688-.304-1.136-.304-.779 0-1.381.315-1.808.944-.427.619-.64 1.595-.64 2.928Zm10.735-5.6v3.552c0 .64.123 1.12.368 1.44.256.31.672.464 1.248.464.405 0 .784-.043 1.136-.128.362-.096.65-.235.864-.416V12.8h2.192V24h-2.192v-4.512c-.277.16-.65.31-1.12.448-.459.128-1.008.192-1.648.192-.448 0-.859-.053-1.232-.16a2.673 2.673 0 0 1-.96-.544 2.628 2.628 0 0 1-.624-.96c-.15-.395-.224-.87-.224-1.424V12.8h2.192Zm11.479 4.944.32 1.456h.096l.256-1.504 1.68-4.896h2.256l-2.976 7.744a18.334 18.334 0 0 1-.688 1.584 5.05 5.05 0 0 1-.704 1.12 2.544 2.544 0 0 1-.832.656 2.64 2.64 0 0 1-1.088.208c-.352 0-.64-.027-.864-.08a2.162 2.162 0 0 1-.704-.304l.56-1.776c.181.096.347.155.496.176.15.021.31.032.48.032.501 0 .853-.395 1.056-1.184L64.567 12.8h2.576l2.272 4.944Zm16.293 5.792c-.341.245-.779.421-1.312.528a8.06 8.06 0 0 1-1.616.16 6.03 6.03 0 0 1-1.92-.304 4.226 4.226 0 0 1-1.584-1.008c-.459-.47-.827-1.072-1.104-1.808-.267-.747-.4-1.648-.4-2.704 0-1.099.15-2.016.448-2.752.31-.747.704-1.344 1.184-1.792a4.3 4.3 0 0 1 1.632-.976 5.546 5.546 0 0 1 1.792-.304c.64 0 1.179.043 1.616.128a5.92 5.92 0 0 1 1.104.304l-.432 1.856a3.178 3.178 0 0 0-.88-.256 7.808 7.808 0 0 0-1.216-.08c-.885 0-1.6.315-2.144.944-.533.63-.8 1.605-.8 2.928 0 .576.064 1.104.192 1.584.128.47.32.875.576 1.216.267.33.592.592.976.784.395.181.848.272 1.36.272.48 0 .885-.048 1.216-.144.33-.096.619-.219.864-.368l.448 1.792Zm3.546-6.176h1.488c.138-1.525.586-2.704 1.344-3.536.757-.832 1.818-1.248 3.184-1.248.81 0 1.504.139 2.08.416a3.619 3.619 0 0 1 1.408 1.184c.373.512.645 1.125.816 1.84.18.715.272 1.51.272 2.384 0 1.867-.384 3.307-1.152 4.32-.768 1.003-1.91 1.504-3.424 1.504-.704 0-1.328-.117-1.872-.352a3.833 3.833 0 0 1-1.36-.992 4.677 4.677 0 0 1-.88-1.552 8.226 8.226 0 0 1-.416-2.016h-1.488V24h-2.192V12.8h2.192v4.56Zm3.728 1.04c0 .565.037 1.088.112 1.568.085.47.213.875.384 1.216.18.341.416.608.704.8.298.192.66.288 1.088.288.778 0 1.349-.304 1.712-.912.373-.608.56-1.595.56-2.96 0-.544-.038-1.05-.112-1.52a4.078 4.078 0 0 0-.352-1.232 1.96 1.96 0 0 0-.704-.816c-.288-.203-.656-.304-1.104-.304-.768 0-1.344.315-1.728.944-.374.619-.56 1.595-.56 2.928Zm17.966 7.6h-1.552l-.24-2h-7.2l-.24 2h-1.552v-3.952h1.184c.075-.117.197-.379.368-.784.171-.405.341-.976.512-1.712.171-.747.315-1.675.432-2.784.117-1.12.171-2.443.16-3.968h6.704v9.248h1.424V26Zm-3.616-3.952v-7.296h-2.48c-.064 1.899-.219 3.456-.464 4.672-.235 1.205-.475 2.08-.72 2.624h3.664Zm10.375-.528h-3.44l-.848 2.48h-2.192l4.032-11.28h1.616L120.907 24h-2.304l-.896-2.48Zm-2.88-1.76h2.4l-.832-2.496-.336-1.76h-.08l-.336 1.776-.816 2.48Zm7.687-6.96h2.144v5.264l-.416 2.608h-1.312l-.416-2.608V12.8Zm-.224 10.144c0-.373.117-.667.352-.88.235-.224.544-.336.928-.336.405 0 .725.112.96.336.235.213.352.507.352.88s-.117.672-.352.896c-.235.224-.555.336-.96.336-.384 0-.693-.112-.928-.336-.235-.224-.352-.523-.352-.896Z"/></svg>